Coordinates
version=1
nRows=16
nColumns=40
inDegrees=yes

Units are S.I. units (second, meters, Newtons, ...)
Angles are in degrees.

endheader
time	pelvis_tilt	pelvis_list	pelvis_rotation	pelvis_tx	pelvis_ty	pelvis_tz	hip_flexion_r	hip_adduction_r	hip_rotation_r	knee_angle_r	knee_angle_r_beta	ankle_angle_r	subtalar_angle_r	mtp_angle_r	hip_flexion_l	hip_adduction_l	hip_rotation_l	knee_angle_l	knee_angle_l_beta	ankle_angle_l	subtalar_angle_l	mtp_angle_l	lumbar_extension	lumbar_bending	lumbar_rotation	arm_flex_r	arm_add_r	arm_rot_r	elbow_flex_r	pro_sup_r	wrist_flex_r	wrist_dev_r	arm_flex_l	arm_add_l	arm_rot_l	elbow_flex_l	pro_sup_l	wrist_flex_l	wrist_dev_l
     16.78500000	     -5.84137241	     -5.17932800	      4.12047252	      0.78402938	      0.91726109	      0.45585729	      4.23763932	     -0.66016558	    -14.64429236	     26.88031431	     26.88031431	     16.83539743	     -4.27066703	     -5.36453454	     29.58842749	     -5.45453571	     -0.69206547	     26.13791238	     26.13791238	      6.21143676	    -12.06037605	      1.65912953	     -7.93106590	      5.28222842	      3.77990147	     35.73241273	    -15.11793512	     -6.81722352	     79.07023525	     44.61356007	      0.00000000	      0.00000000	     -6.12711073	     -6.53156872	      1.31327340	     27.01638385	     45.32788890	      0.00000000	      0.00000000
     16.79800000	     -5.89443403	     -5.13962928	      3.67509672	      0.78433172	      0.91824777	      0.45408640	      5.86710650	     -1.28747664	    -13.95445127	     30.47392835	     30.47392835	     15.68267551	     -5.73800635	     -6.17754389	     29.04505334	     -5.52259280	     -1.15992073	     26.11988854	     26.11988854	      6.73199407	    -12.01118489	      1.48312102	     -8.04287628	      5.01892950	      3.81117445	     33.99671465	    -14.73903124	     -6.66145827	     78.10235556	     44.63938597	      0.00000000	      0.00000000	     -4.95510198	     -6.69112841	      1.13326521	     27.42164003	     45.38155821	      0.00000000	      0.00000000
     16.81100000	     -6.03117161	     -5.10138611	      3.15827450	      0.78440070	      0.91900979	      0.45246254	      7.78710552	     -1.88795852	    -13.18160253	     34.28653878	     34.28653878	     14.33297520	     -7.44797047	     -6.95317285	     28.52867103	     -5.61006408	     -1.68449148	     25.99081976	     25.99081976	      7.34103801	    -11.85284102	      1.18534576	     -8.14464639	      4.75498739	      3.83928260	     32.22609221	    -14.34846524	     -6.45796011	     76.90858368	     44.67109314	      0.00000000	      0.00000000	     -3.74888175	     -6.90942355	      0.92929947	     27.89663236	     45.43854390	      0.00000000	      0.00000000
     16.82400000	     -6.11897143	     -5.18953689	      2.69127735	      0.78440874	      0.91978020	      0.45107320	      9.71139581	     -2.13480395	    -12.12263502	     37.94712098	     37.94712098	     12.24127681	    -10.08244935	     -8.48706980	     28.03466636	     -5.88539243	     -2.33116240	     25.94415811	     25.94415811	      7.82325946	    -11.39686900	      0.57985695	     -8.22376145	      4.65711126	      3.81934797	     30.70083775	    -13.89152785	     -6.29591607	     74.63099576	     44.75861239	      0.00000000	      0.00000000	     -2.54154498	     -7.12014428	      0.30369171	     28.48691010	     45.56999037	      0.00000000	      0.00000000
     16.83700000	     -6.15024618	     -5.04498629	      2.28506636	      0.78436259	      0.92051084	      0.44946056	     11.70424302	     -2.84664445	    -11.60633243	     41.89030966	     41.89030966	     10.81674807	    -11.28097990	     -8.78308188	     27.37663671	     -5.84481908	     -2.94312617	     25.73059719	     25.73059719	      8.26459506	    -11.09820513	      0.25828402	     -8.42943642	      4.31495196	      3.56312920	     28.90251083	    -13.36903636	     -5.89762022	     73.46766774	     44.78123427	      0.00000000	      0.00000000	     -1.29616691	     -7.45583572	      0.12355212	     29.03201632	     45.62049082	      0.00000000	      0.00000000
     16.85000000	     -6.17243639	     -4.94021657	      1.91131999	      0.78424753	      0.92115767	      0.44788915	     13.72223830	     -3.40008572	    -10.98643977	     45.69233849	     45.69233849	      9.37938107	    -12.69874209	     -8.67346359	     26.76639809	     -5.84765943	     -3.56734045	     25.58844990	     25.58844990	      8.66269449	    -10.73665694	     -0.11976085	     -8.59933943	      4.08175001	      3.39285063	     27.04969782	    -13.00636989	     -5.49951257	     71.98493783	     44.81387633	      0.00000000	      0.00000000	      0.03281525	     -7.82747772	     -0.04759459	     29.65081246	     45.66974400	      0.00000000	      0.00000000
     16.86300000	     -6.20990040	     -5.01275204	      1.57498442	      0.78408595	      0.92174200	      0.44651782	     15.76194967	     -3.59150303	    -10.27311291	     49.28221391	     49.28221391	      8.19944605	    -14.24775241	     -7.56643974	     26.21846963	     -6.07754397	     -4.24483618	     25.48551381	     25.48551381	      9.05332850	    -10.02271256	     -0.86410783	     -8.67229975	      4.01149696	      3.30250767	     25.43038102	    -12.81045772	     -4.93592978	     69.21194126	     44.89302986	      0.00000000	      0.00000000	      1.41692940	     -8.14822434	     -0.31816219	     30.41895842	     45.73640705	      0.00000000	      0.00000000
     16.87600000	     -6.15927060	     -4.94725091	      1.30370133	      0.78394157	      0.92240535	      0.44495979	     17.75657975	     -4.00826253	     -9.76626497	     52.86932375	     52.86932375	      8.07078535	    -14.66319620	     -4.33398252	     25.53648342	     -6.10400187	     -4.87215217	     25.30187220	     25.30187220	      9.25920208	     -9.48766392	     -1.74191777	     -8.84837269	      3.85619416	      2.38184363	     24.56253439	    -12.02665223	     -3.78884557	     65.45674193	     45.00519524	      0.00000000	      0.00000000	      2.43704884	     -8.66724071	     -0.72581312	     31.06167197	     45.82215423	      0.00000000	      0.00000000
     16.88900000	     -6.14306018	     -4.84457804	      1.08984999	      0.78375713	      0.92300663	      0.44326198	     19.62948301	     -4.45154178	     -9.35916597	     55.89958663	     55.89958663	      7.16478502	    -15.44711329	     -3.99929437	     24.89353752	     -5.98719630	     -5.22608358	     25.10236574	     25.10236574	      9.61215314	     -9.29026720	     -1.91319142	     -9.03603511	      3.71386487	      2.14141322	     22.45117437	    -11.87216157	     -3.40801618	     64.12102018	     45.03064676	      0.00000000	      0.00000000	      3.91582106	     -9.09523721	     -0.84126908	     31.71533287	     45.86319059	      0.00000000	      0.00000000
     16.90200000	     -6.12446848	     -4.80022809	      0.89963433	      0.78355735	      0.92369065	      0.44156263	     21.43809695	     -4.77473210	     -8.98593674	     58.57415979	     58.57415979	      6.51654448	    -16.13012791	     -3.48865877	     24.24676587	     -5.92158169	     -5.56380659	     24.88096591	     24.88096591	      9.93074894	     -9.01651720	     -2.09410996	     -9.21350970	      3.69409379	      2.02774221	     20.34751147	    -11.86297735	     -3.01543135	     62.36397106	     45.06995960	      0.00000000	      0.00000000	      5.47916092	     -9.48467864	     -0.89574429	     32.32137579	     45.89652701	      0.00000000	      0.00000000
     16.91500000	     -6.09637634	     -4.87341011	      0.73283516	      0.78336017	      0.92451237	      0.43998386	     23.22200739	     -4.87317413	     -8.60834003	     61.02394106	     61.02394106	      7.12149837	    -16.09142173	      0.18664120	     23.59336906	     -5.99871685	     -5.93570325	     24.63654550	     24.63654550	     10.21374012	     -8.58475393	     -2.52514040	     -9.27344986	      3.80272984	      1.62137137	     19.36857310	    -11.68701207	     -2.02579903	     57.52972828	     45.21478744	      0.00000000	      0.00000000	      7.21927748	     -9.93569864	     -0.33045138	     32.10254313	     45.85587872	      0.00000000	      0.00000000
     16.92800000	     -6.12748388	     -4.85506005	      0.57262059	      0.78312222	      0.92528644	      0.43836718	     24.90339510	     -5.06718764	     -8.28243665	     62.86344258	     62.86344258	      6.72150594	    -16.47923699	      0.36810166	     22.95257429	     -5.90579946	     -6.13369460	     24.29324224	     24.29324224	     10.48856020	     -8.45922032	     -2.58111554	     -9.40505658	      3.84877239	      1.55945061	     17.15052956	    -11.83780566	     -1.69720061	     55.85966875	     45.25206348	      0.00000000	      0.00000000	      8.81630573	    -10.28329909	     -0.36089826	     32.83987066	     45.88728726	      0.00000000	      0.00000000
     16.94100000	     -6.11681509	     -4.92141070	      0.42338990	      0.78293597	      0.92618157	      0.43683854	     26.41872227	     -5.12527007	     -8.02731857	     64.26080891	     64.26080891	      6.52038205	    -16.73307394	      0.65934172	     22.25076985	     -5.89502311	     -6.29548479	     23.91297973	     23.91297973	     10.75410024	     -8.34503915	     -2.64251260	     -9.53460239	      4.03597733	      1.69267762	     15.06845849	    -12.10558255	     -1.33991458	     53.54362352	     45.31221951	      0.00000000	      0.00000000	     10.54648059	    -10.54402996	     -0.26334016	     33.42789606	     45.90319516	      0.00000000	      0.00000000
     16.95400000	     -6.07475526	     -5.06790672	      0.29807337	      0.78273246	      0.92720985	      0.43551993	     27.79915585	     -5.05501791	     -7.85798497	     65.24344887	     65.24344887	      6.59836880	    -16.73527199	      1.67704331	     21.51311139	     -5.96308781	     -6.35530620	     23.50385465	     23.50385465	     10.91233601	     -8.32294082	     -2.86761896	     -9.61214359	      4.30934841	      1.36718240	     14.08645876	    -11.90922080	     -0.82720281	     48.74119244	     45.46634869	      0.00000000	      0.00000000	     12.36569122	    -11.03827903	      0.64630896	     32.92762691	     45.82261651	      0.00000000	      0.00000000
     16.96700000	     -6.10183655	     -5.17583014	      0.14730556	      0.78253370	      0.92809107	      0.43435236	     29.12235978	     -4.94337580	     -7.62601912	     65.75048663	     65.75048663	      6.48496652	    -16.80752472	      1.68256521	     20.81830430	     -5.99608428	     -6.44233819	     23.04660627	     23.04660627	     11.14995714	     -8.23799406	     -2.88381180	     -9.72666225	      4.55131135	      1.43816682	     11.92217981	    -12.18170269	     -0.60948890	     46.85564647	     45.51474976	      0.00000000	      0.00000000	     13.95300494	    -11.32893316	      0.66552470	     33.71936086	     45.84862195	      0.00000000	      0.00000000
     16.98000000	     -6.07862375	     -5.32642896	     -0.01394036	      0.78238096	      0.92902599	      0.43336391	     30.25472198	     -4.74617813	     -7.43746490	     65.80792990	     65.80792990	      6.32734072	    -16.76621517	      1.66913227	     20.07355194	     -6.08618830	     -6.52627317	     22.60743168	     22.60743168	     11.36877669	     -8.20936869	     -2.93860254	     -9.86974895	      4.83783044	      1.63207684	      9.98870924	    -12.45787225	     -0.42607115	     44.31572025	     45.59096989	      0.00000000	      0.00000000	     15.61886883	    -11.57410178	      0.80188250	     34.33885623	     45.86227950	      0.00000000	      0.00000000
